<svg xmlns="http://www.w3.org/2000/svg" width="187.073" height="199.722" viewBox="0 0 187.073 199.722">
    <g id="hand-index-thumb" transform="translate(-1.926)">
        <path id="Pfad_2" d="M75.5,12.483a9.365,9.365,0,0,0-9.365,9.365v96.737A6.241,6.241,0,0,1,55.478,123L25.392,92.9a6.452,6.452,0,0,0-10.1,7.878L46.651,153.02,62.03,183.788a6.241,6.241,0,0,0,5.581,3.445h78.663a6.242,6.242,0,0,0,5.421-3.146L169.108,153.6a31.206,31.206,0,0,0,3.956-12.372l3.4-33.892a12.483,12.483,0,0,0-12.422-13.731h-4.283v12.483a6.241,6.241,0,0,1-12.483,0V89.3q-1.185-1.671-2.5-3.245c-2.336-2.768-4.594-4.782-6.064-5.37-1.548-.627-4.893-.788-8.838-.488q-.661.054-1.32.122V99.861a6.241,6.241,0,1,1-12.483,0V74.718A4.278,4.278,0,0,0,114.2,70.8a20.682,20.682,0,0,0-5.592-2.269,52.122,52.122,0,0,0-10.186-.338l-1.071.05V99.861a6.241,6.241,0,1,1-12.483,0V21.847a9.365,9.365,0,0,0-9.37-9.365ZM97.342,55.75v-33.9a21.846,21.846,0,1,0-43.692,0l0,81.675L34.219,84.083A18.935,18.935,0,0,0,4.6,107.2l31.1,51.839,15.168,30.336a18.724,18.724,0,0,0,16.749,10.347h78.663a18.724,18.724,0,0,0,16.25-9.437l17.415-30.469a43.689,43.689,0,0,0,5.542-17.337l3.4-33.892a24.965,24.965,0,0,0-24.843-27.451H156.77q-1.17-1.585-2.435-3.1c-2.386-2.857-6.363-7.09-10.985-8.938-4.544-1.82-10.558-1.648-14.452-1.348l-1.648.15a15.728,15.728,0,0,0-6.99-8.017,32.876,32.876,0,0,0-9.209-3.6,61.782,61.782,0,0,0-13.11-.571l-.6.028ZM123.483,81.026Z" fill="#444168" fill-rule="evenodd"/>
    </g>
</svg>