<svg xmlns="http://www.w3.org/2000/svg" width="242.058" height="199.72" viewBox="0 0 242.058 199.72">
    <path id="versions" d="M226.929,199.72H105.9a16.361,16.361,0,0,1-10.758-3.606,11.064,11.064,0,0,1-4.37-8.876V12.483a11.1,11.1,0,0,1,4.37-8.876A16.305,16.305,0,0,1,105.9,0H226.929a16.361,16.361,0,0,1,10.758,3.606,11.064,11.064,0,0,1,4.37,8.876V187.237a11.1,11.1,0,0,1-4.37,8.876A16.305,16.305,0,0,1,226.929,199.72Zm0-187.237H105.9V187.237H226.929ZM45.386,162.272V37.448a11.1,11.1,0,0,1,4.37-8.876,16.305,16.305,0,0,1,10.758-3.606H75.643V37.448H60.514V162.272H75.643v12.482H60.514a16.361,16.361,0,0,1-10.758-3.606A11.064,11.064,0,0,1,45.386,162.272ZM0,137.307V62.413a11.184,11.184,0,0,1,4.37-8.777A16.065,16.065,0,0,1,15.129,49.93H30.257V62.413H15.129v74.895H30.257V149.79H15.129A16.361,16.361,0,0,1,4.37,146.184,11.064,11.064,0,0,1,0,137.307Z" fill="#444168"/>
</svg>