<svg xmlns="http://www.w3.org/2000/svg" width="36" height="36" viewBox="0 0 36 36">
    <path id="cancel-circle" d="M36,18.036a17.633,17.633,0,0,1-2.412,9.036,17.872,17.872,0,0,1-6.552,6.552A17.633,17.633,0,0,1,18,36.036a17.633,17.633,0,0,1-9.036-2.412,17.872,17.872,0,0,1-6.552-6.552A17.633,17.633,0,0,1,0,18.036,17.633,17.633,0,0,1,2.412,9,17.872,17.872,0,0,1,8.964,2.448,17.633,17.633,0,0,1,18,.036a17.633,17.633,0,0,1,9.036,2.412A17.872,17.872,0,0,1,33.588,9,17.633,17.633,0,0,1,36,18.036ZM23.8,26.388l2.556-2.556-5.8-5.8,5.8-5.8L23.8,9.684,18,15.48l-5.8-5.8L9.648,12.24l5.8,5.8-5.8,5.8L12.2,26.388l5.8-5.8Z" transform="translate(0 -0.036)" fill="#444168"/>
</svg>
