<svg xmlns="http://www.w3.org/2000/svg" width="56" height="56" viewBox="0 0 56 56">
    <g id="Icon_ionic-ios-save" transform="translate(-4.5 -4.5)">
        <path id="Pfad_75" d="M19.125,4.5H18a.564.564,0,0,0-.562.563v5.063c0,.309.534.563.844.563h.844a.564.564,0,0,0,.563-.562V5.063A.564.564,0,0,0,19.125,4.5Z" transform="translate(15.159)" fill="#444168"/>
        <path id="Pfad_76" d="M58.444,14.14,50.875,6.571A7.057,7.057,0,0,0,45.9,4.5H41.819a2.356,2.356,0,0,0-2.333,2.362V18.529a2.34,2.34,0,0,1-2.333,2.333H18.5a2.34,2.34,0,0,1-2.333-2.333V6.863A2.365,2.365,0,0,0,13.833,4.5H9.167A4.68,4.68,0,0,0,4.5,9.167V55.833A4.68,4.68,0,0,0,9.167,60.5H55.833A4.68,4.68,0,0,0,60.5,55.833V19.083A7,7,0,0,0,58.444,14.14ZM42.125,53.515a2.481,2.481,0,0,1-2.6,2.333H16.138a2.481,2.481,0,0,1-2.6-2.333v-14a2.481,2.481,0,0,1,2.6-2.333H39.529a2.481,2.481,0,0,1,2.6,2.333v14Z" transform="translate(0 0)" fill="#444168"/>
    </g>
</svg>
